<?xml version="1.0" encoding="UTF-8"?>
<svg width="20px" height="24px" viewBox="0 0 20 24" version="1.1" xmlns="http://www.w3.org/2000/svg" xmlns:xlink="http://www.w3.org/1999/xlink">
    <title>14D4A9E3-82EE-40CD-8D09-EC52A5A9F204</title>
    <defs>
        <polygon id="path-1" points="0.0004 0.0003 20 0.0003 20 24 0.0004 24"></polygon>
    </defs>
    <g id="Page-1" stroke="none" stroke-width="1" fill="none" fill-rule="evenodd">
        <g id="Project-Air-Process-Icons" transform="translate(-614.000000, -306.000000)">
            <g id="Icon_Rules" transform="translate(614.000000, 306.000000)">
                <mask id="mask-2" fill="white">
                    <use xlink:href="#path-1"></use>
                </mask>
                <g id="Clip-2"></g>
                <path d="M17.7354,4.5283 L14.7314,4.5283 C14.7354,4.6043 14.7554,4.6763 14.7554,4.7553 L14.7554,5.6603 C14.7554,6.2863 14.2484,6.7923 13.6234,6.7923 L6.3774,6.7923 C5.7524,6.7923 5.2454,6.2863 5.2454,5.6603 L5.2454,4.7553 C5.2454,4.6763 5.2644,4.6043 5.2684,4.5283 L2.2634,4.5283 L2.2634,21.7363 L17.7354,21.7363 L17.7354,4.5283 Z M7.5194,4.5283 L12.4794,4.5283 C12.3664,3.2603 11.2984,2.2633 10.0004,2.2633 C8.7024,2.2633 7.6334,3.2603 7.5194,4.5283 L7.5194,4.5283 Z M20.0004,3.3963 L20.0004,22.8683 C20.0004,23.4933 19.4934,24.0003 18.8684,24.0003 L1.1314,24.0003 C0.5064,24.0003 0.0004,23.4933 0.0004,22.8683 L0.0004,3.3963 C0.0004,2.7703 0.5064,2.2633 1.1314,2.2633 L5.9684,2.2633 C6.8074,0.9113 8.2944,0.0003 10.0004,0.0003 C11.7064,0.0003 13.1924,0.9113 14.0314,2.2633 L18.8684,2.2633 C19.4934,2.2633 20.0004,2.7703 20.0004,3.3963 L20.0004,3.3963 Z M12.7164,15.8153 L7.2834,15.8153 C6.6574,15.8153 6.1514,16.3223 6.1514,16.9473 C6.1514,17.5733 6.6574,18.0803 7.2834,18.0803 L12.7164,18.0803 C13.3414,18.0803 13.8484,17.5733 13.8484,16.9473 C13.8484,16.3223 13.3414,15.8153 12.7164,15.8153 L12.7164,15.8153 Z M13.8484,11.1983 C13.8484,11.8243 13.3414,12.3313 12.7164,12.3313 L7.2834,12.3313 C6.6574,12.3313 6.1514,11.8243 6.1514,11.1983 C6.1514,10.5733 6.6574,10.0663 7.2834,10.0663 L12.7164,10.0663 C13.3414,10.0663 13.8484,10.5733 13.8484,11.1983 L13.8484,11.1983 Z" id="Fill-1" fill="#727272" mask="url(#mask-2)"></path>
            </g>
        </g>
    </g>
</svg>