<?xml version="1.0" encoding="UTF-8"?>
<svg width="24px" height="24px" viewBox="0 0 24 24" version="1.1" xmlns="http://www.w3.org/2000/svg" xmlns:xlink="http://www.w3.org/1999/xlink">
    <title>207D6462-EBB4-4725-8F13-604B93923C78</title>
    <g id="Page-1" stroke="none" stroke-width="1" fill="none" fill-rule="evenodd">
        <g id="Project-Air-Process-Icons" transform="translate(-369.000000, -166.000000)" fill="#727272">
            <g id="Icon_Data_Source" transform="translate(369.000000, 166.000000)">
                <path d="M19.471,4.529 L21.737,4.529 L21.737,2.264 L19.471,2.264 L19.471,4.529 Z M19.471,13.132 L21.737,13.132 L21.737,10.868 L19.471,10.868 L19.471,13.132 Z M19.471,21.737 L21.737,21.737 L21.737,19.472 L19.471,19.472 L19.471,21.737 Z M2.264,14.49 L7.245,14.49 L7.245,9.51 L2.264,9.51 L2.264,14.49 Z M18.339,6.792 L22.868,6.792 C23.493,6.792 24,6.286 24,5.66 L24,1.132 C24,0.507 23.493,0 22.868,0 L18.339,0 C17.714,0 17.207,0.507 17.207,1.132 L17.207,2.264 L14.879,2.264 C13.482,2.264 12.346,3.356 12.346,4.699 L12.346,10.868 L9.51,10.868 L9.51,8.619 C9.51,7.861 8.892,7.245 8.136,7.245 L1.373,7.245 C0.616,7.245 -1.42108547e-14,7.861 -1.42108547e-14,8.619 L-1.42108547e-14,15.381 C-1.42108547e-14,16.139 0.616,16.755 1.373,16.755 L8.136,16.755 C8.892,16.755 9.51,16.139 9.51,15.381 L9.51,13.132 L12.346,13.132 L12.346,19.302 C12.346,20.644 13.482,21.736 14.879,21.736 L17.207,21.736 L17.207,22.868 C17.207,23.493 17.714,24 18.339,24 L22.868,24 C23.493,24 24,23.493 24,22.868 L24,18.34 C24,17.714 23.493,17.208 22.868,17.208 L18.339,17.208 C17.714,17.208 17.207,17.714 17.207,18.34 L17.207,19.472 L14.879,19.472 C14.714,19.472 14.61,19.371 14.61,19.302 L14.61,13.132 L17.207,13.132 L17.207,14.264 C17.207,14.89 17.714,15.396 18.339,15.396 L22.868,15.396 C23.493,15.396 24,14.89 24,14.264 L24,9.736 C24,9.11 23.493,8.604 22.868,8.604 L18.339,8.604 C17.714,8.604 17.207,9.11 17.207,9.736 L17.207,10.868 L14.61,10.868 L14.61,4.699 C14.61,4.629 14.714,4.528 14.879,4.528 L17.207,4.528 L17.207,5.66 C17.207,6.286 17.714,6.792 18.339,6.792 L18.339,6.792 Z"></path>
            </g>
        </g>
    </g>
</svg>