<?xml version="1.0" encoding="UTF-8"?>
<svg width="24px" height="24px" viewBox="0 0 24 24" version="1.1" xmlns="http://www.w3.org/2000/svg" xmlns:xlink="http://www.w3.org/1999/xlink">
    <title>0DAD78D9-A389-48F1-871B-9B4BBC4F0AAA</title>
    <defs>
        <polygon id="path-1" points="0.0002 0.0001 24 0.0001 24 24 0.0002 24"></polygon>
    </defs>
    <g id="Page-1" stroke="none" stroke-width="1" fill="none" fill-rule="evenodd">
        <g id="Project-Air-Process-Icons" transform="translate(-369.000000, -444.000000)">
            <g id="Icon_Inferencing" transform="translate(369.000000, 444.000000)">
                <mask id="mask-2" fill="white">
                    <use xlink:href="#path-1"></use>
                </mask>
                <g id="Clip-2"></g>
                <path d="M10.8682,2.3301 C6.0312,2.8921 2.2642,7.0151 2.2642,12.0001 C2.2642,17.3681 6.6322,21.7361 12.0002,21.7361 C16.9852,21.7361 21.1072,17.9691 21.6702,13.1321 L12.0002,13.1321 C11.3752,13.1321 10.8682,12.6251 10.8682,12.0001 L10.8682,2.3301 Z M12.0002,24.0001 C5.3842,24.0001 0.0002,18.6161 0.0002,12.0001 C0.0002,5.3841 5.3842,0.0001 12.0002,0.0001 C12.6252,0.0001 13.1322,0.5071 13.1322,1.1321 L13.1322,10.8681 L22.8682,10.8681 C23.4932,10.8681 24.0002,11.3751 24.0002,12.0001 C24.0002,18.6161 18.6162,24.0001 12.0002,24.0001 L12.0002,24.0001 Z M17.6602,6.3401 L21.6122,6.3401 C21.1752,4.3751 19.6252,2.8251 17.6602,2.3881 L17.6602,6.3401 Z M22.8682,8.6031 L16.5282,8.6031 C15.9032,8.6031 15.3962,8.0971 15.3962,7.4721 L15.3962,1.1321 C15.3962,0.5071 15.9032,0.0001 16.5282,0.0001 C20.6482,0.0001 24.0002,3.3511 24.0002,7.4721 C24.0002,8.0971 23.4932,8.6031 22.8682,8.6031 L22.8682,8.6031 Z" id="Fill-1" fill="#727272" mask="url(#mask-2)"></path>
            </g>
        </g>
    </g>
</svg>