<?xml version="1.0" encoding="UTF-8"?>
<svg width="24px" height="24px" viewBox="0 0 24 24" version="1.1" xmlns="http://www.w3.org/2000/svg" xmlns:xlink="http://www.w3.org/1999/xlink">
    <title>D1265B4A-0891-4BF8-B7F5-5C028EC7D23B</title>
    <g id="Page-1" stroke="none" stroke-width="1" fill="none" fill-rule="evenodd">
        <g id="Project-Air-Process-Icons" transform="translate(-130.000000, -166.000000)" fill="#727272">
            <g id="Icon_Data_Store" transform="translate(130.000000, 166.000000)">
                <path d="M2.264,13.447 L12.615,13.447 L12.615,11.105 L2.264,11.105 L2.264,13.447 Z M1.132,15.711 L13.747,15.711 C14.372,15.711 14.879,15.204 14.879,14.579 L14.879,9.974 C14.879,9.349 14.372,8.842 13.747,8.842 L1.132,8.842 C0.507,8.842 0,9.349 0,9.974 L0,14.579 C0,15.204 0.507,15.711 1.132,15.711 L1.132,15.711 Z M21.736,21.736 L11.386,21.736 L11.386,19.704 L18.252,19.704 C18.877,19.704 19.384,19.197 19.384,18.572 L19.384,11.105 L21.736,11.105 L21.736,21.736 Z M22.868,8.842 L18.252,8.842 C17.627,8.842 17.12,9.349 17.12,9.974 L17.12,17.44 L10.253,17.44 C9.628,17.44 9.121,17.947 9.121,18.572 L9.121,22.868 C9.121,23.493 9.628,24 10.253,24 L22.868,24 C23.493,24 24,23.493 24,22.868 L24,9.974 C24,9.349 23.493,8.842 22.868,8.842 L22.868,8.842 Z M2.375,21.736 L4.616,21.736 L4.616,19.394 L2.375,19.394 L2.375,21.736 Z M5.748,17.131 L1.242,17.131 C0.617,17.131 0.11,17.638 0.11,18.263 L0.11,22.868 C0.11,23.493 0.617,24 1.242,24 L5.748,24 C6.373,24 6.88,23.493 6.88,22.868 L6.88,18.263 C6.88,17.638 6.373,17.131 5.748,17.131 L5.748,17.131 Z M2.263,4.605 L21.736,4.605 L21.736,2.263 L2.263,2.263 L2.263,4.605 Z M22.646,0 L1.354,0 C0.606,0 0,0.576 0,1.286 L0,5.584 C0,6.293 0.606,6.869 1.354,6.869 L22.646,6.869 C23.394,6.869 24,6.293 24,5.584 L24,1.286 C24,0.576 23.394,0 22.646,0 L22.646,0 Z"></path>
            </g>
        </g>
    </g>
</svg>