<?xml version="1.0" encoding="UTF-8"?>
<svg width="24px" height="24px" viewBox="0 0 24 24" version="1.1" xmlns="http://www.w3.org/2000/svg" xmlns:xlink="http://www.w3.org/1999/xlink">
    <title>BC899732-26D0-4820-9AF9-26F5DFB27AC7</title>
    <defs>
        <polygon id="path-1" points="0.0002 0 24 0 24 23.9996 0.0002 23.9996"></polygon>
    </defs>
    <g id="Page-1" stroke="none" stroke-width="1" fill="none" fill-rule="evenodd">
        <g id="Project-Air-Process-Icons" transform="translate(-369.000000, -305.000000)">
            <g id="Icon_Image_Resize" transform="translate(369.000000, 305.000000)">
                <mask id="mask-2" fill="white">
                    <use xlink:href="#path-1"></use>
                </mask>
                <g id="Clip-2"></g>
                <path d="M18.2422,15.1396 L15.1112,8.1226 C14.9692,7.8036 14.6552,7.5946 14.3062,7.5856 L14.2842,7.5856 C13.9432,7.5856 13.6312,7.7766 13.4762,8.0816 L11.8402,11.3056 L11.0512,9.9706 C10.8952,9.7086 10.6182,9.5416 10.3132,9.5286 C10.0052,9.5106 9.7192,9.6536 9.5382,9.9006 L5.8512,14.9766 C5.6522,15.2516 5.6242,15.6166 5.7782,15.9196 C5.9322,16.2236 6.2442,16.4136 6.5852,16.4136 L17.4152,16.4136 C17.7212,16.4136 18.0082,16.2586 18.1752,16.0006 C18.3422,15.7436 18.3662,15.4196 18.2422,15.1396 M24.0002,22.8686 L24.0002,15.9126 C24.0002,15.2866 23.4932,14.7806 22.8682,14.7806 C22.2422,14.7806 21.7362,15.2866 21.7362,15.9126 L21.7362,21.7366 L15.9562,21.7366 C15.3312,21.7366 14.8242,22.2426 14.8242,22.8686 C14.8242,23.4936 15.3312,23.9996 15.9562,23.9996 L22.8682,23.9996 C23.4932,23.9996 24.0002,23.4936 24.0002,22.8686 M9.1762,22.8686 C9.1762,22.2426 8.6692,21.7366 8.0442,21.7366 L2.2632,21.7366 L2.2632,15.9126 C2.2632,15.2866 1.7582,14.7806 1.1322,14.7806 C0.5072,14.7806 0.0002,15.2866 0.0002,15.9126 L0.0002,22.8686 C0.0002,23.4936 0.5072,23.9996 1.1322,23.9996 L8.0442,23.9996 C8.6692,23.9996 9.1762,23.4936 9.1762,22.8686 M24.0002,8.0866 L24.0002,1.1316 C24.0002,0.5066 23.4932,-0.0004 22.8682,-0.0004 L15.9562,-0.0004 C15.3312,-0.0004 14.8242,0.5066 14.8242,1.1316 C14.8242,1.7576 15.3312,2.2636 15.9562,2.2636 L21.7362,2.2636 L21.7362,8.0866 C21.7362,8.7126 22.2422,9.2196 22.8682,9.2196 C23.4932,9.2196 24.0002,8.7126 24.0002,8.0866 M1.1322,9.2196 C0.5072,9.2196 0.0002,8.7126 0.0002,8.0866 L0.0002,1.1316 C0.0002,0.5066 0.5072,-0.0004 1.1322,-0.0004 L8.0442,-0.0004 C8.6692,-0.0004 9.1762,0.5066 9.1762,1.1316 C9.1762,1.7576 8.6692,2.2636 8.0442,2.2636 L2.2632,2.2636 L2.2632,8.0866 C2.2632,8.7126 1.7582,9.2196 1.1322,9.2196" id="Fill-1" fill="#727272" mask="url(#mask-2)"></path>
            </g>
        </g>
    </g>
</svg>