<?xml version="1.0" encoding="UTF-8"?>
<svg width="24px" height="24px" viewBox="0 0 24 24" version="1.1" xmlns="http://www.w3.org/2000/svg" xmlns:xlink="http://www.w3.org/1999/xlink">
    <title>465A42CF-6655-4B0E-A8C9-88EAC3269CF2</title>
    <defs>
        <polygon id="path-1" points="0 0 24 0 24 23.9997 0 23.9997"></polygon>
    </defs>
    <g id="Page-1" stroke="none" stroke-width="1" fill="none" fill-rule="evenodd">
        <g id="Project-Air-Process-Icons" transform="translate(-130.000000, -305.000000)">
            <g id="Icon_Streaming" transform="translate(130.000000, 305.000000)">
                <mask id="mask-2" fill="white">
                    <use xlink:href="#path-1"></use>
                </mask>
                <g id="Clip-2"></g>
                <path d="M12,18.3047 C11.28,18.3047 10.697,18.8877 10.697,19.6077 C10.697,20.3267 11.28,20.9097 12,20.9097 C12.72,20.9097 13.303,20.3267 13.303,19.6077 C13.303,18.8877 12.72,18.3047 12,18.3047 L12,18.3047 Z M2.264,21.7357 L21.737,21.7357 L21.737,17.6597 L2.264,17.6597 L2.264,21.7357 Z M24,22.8677 L24,16.5287 C24,15.9037 23.493,15.3967 22.868,15.3967 L1.132,15.3967 C0.507,15.3967 0,15.9037 0,16.5287 L0,22.8677 C0,23.4927 0.507,23.9997 1.132,23.9997 L22.868,23.9997 C23.493,23.9997 24,23.4927 24,22.8677 L24,22.8677 Z M16.78,12.7767 C17.137,12.2627 17.009,11.5577 16.495,11.2007 C15.298,10.3717 13.701,9.9137 12,9.9137 C10.299,9.9137 8.702,10.3717 7.505,11.2007 C6.991,11.5577 6.863,12.2627 7.22,12.7767 C7.577,13.2907 8.283,13.4187 8.795,13.0627 C9.604,12.5007 10.773,12.1787 12,12.1787 C13.227,12.1787 14.396,12.5007 15.205,13.0627 C15.401,13.1987 15.626,13.2637 15.849,13.2637 C16.207,13.2637 16.561,13.0937 16.78,12.7767 L16.78,12.7767 Z M6.035,9.0607 C9.38,6.7417 14.618,6.7417 17.964,9.0607 C18.476,9.4157 19.182,9.2897 19.539,8.7747 C19.896,8.2607 19.768,7.5557 19.253,7.1997 C15.117,4.3317 8.882,4.3317 4.746,7.1997 C4.232,7.5557 4.104,8.2607 4.46,8.7747 C4.681,9.0917 5.033,9.2617 5.392,9.2617 C5.614,9.2617 5.839,9.1967 6.035,9.0607 L6.035,9.0607 Z M22.867,6.2127 C22.61,6.2127 22.354,6.1267 22.141,5.9487 C19.305,3.5737 15.703,2.2637 12,2.2637 C8.297,2.2637 4.695,3.5737 1.859,5.9487 C1.379,6.3517 0.665,6.2857 0.265,5.8077 C-0.137,5.3287 -0.074,4.6157 0.405,4.2137 C3.648,1.4957 7.767,-0.0003 12,-0.0003 C16.233,-0.0003 20.352,1.4957 23.595,4.2137 C24.074,4.6157 24.137,5.3287 23.735,5.8077 C23.512,6.0757 23.19,6.2127 22.867,6.2127 L22.867,6.2127 Z" id="Fill-1" fill="#727272" mask="url(#mask-2)"></path>
            </g>
        </g>
    </g>
</svg>