<?xml version="1.0" encoding="UTF-8"?>
<svg width="24px" height="24px" viewBox="0 0 24 24" version="1.1" xmlns="http://www.w3.org/2000/svg" xmlns:xlink="http://www.w3.org/1999/xlink">
    <title>D4A4D63C-0CB4-4E5F-804E-21F52EC01AD9</title>
    <defs>
        <polygon id="path-1" points="0.000136381031 0 23.9998636 0 23.9998636 23.9998 0.000136381031 23.9998"></polygon>
    </defs>
    <g id="Page-1" stroke="none" stroke-width="1" fill="none" fill-rule="evenodd">
        <g id="Project-Air-Process-Icons" transform="translate(-130.000000, -444.000000)">
            <g id="Icon_Filters" transform="translate(130.000000, 444.000000)">
                <mask id="mask-2" fill="white">
                    <use xlink:href="#path-1"></use>
                </mask>
                <g id="Clip-2"></g>
                <path d="M10.587,20.7178 L13.412,21.4198 L13.412,12.8338 C13.412,12.5988 13.486,12.3698 13.622,12.1778 L20.674,2.2638 L3.326,2.2638 L10.377,12.1778 C10.514,12.3698 10.587,12.5988 10.587,12.8338 L10.587,20.7178 Z M14.545,23.9998 C14.453,23.9998 14.361,23.9888 14.272,23.9668 L9.182,22.7008 C8.677,22.5758 8.322,22.1228 8.322,21.6038 L8.322,13.1958 L0.21,1.7878 C-0.036,1.4438 -0.068,0.9888 0.126,0.6138 C0.32,0.2368 0.708,-0.0002 1.132,-0.0002 L22.868,-0.0002 C23.292,-0.0002 23.68,0.2368 23.874,0.6138 C24.068,0.9888 24.036,1.4438 23.79,1.7878 L15.677,13.1958 L15.677,22.8678 C15.677,23.2168 15.517,23.5448 15.241,23.7598 C15.041,23.9168 14.795,23.9998 14.545,23.9998 L14.545,23.9998 Z" id="Fill-1" fill="#727272" mask="url(#mask-2)"></path>
            </g>
        </g>
    </g>
</svg>