<?xml version="1.0" encoding="UTF-8"?>
<svg width="24px" height="24px" viewBox="0 0 24 24" version="1.1" xmlns="http://www.w3.org/2000/svg" xmlns:xlink="http://www.w3.org/1999/xlink">
    <title>240C7DEE-C33A-4303-BCDF-EF4D64FBEF3E</title>
    <defs>
        <polygon id="path-1" points="0.0002 0 24 0 24 23.9998 0.0002 23.9998"></polygon>
    </defs>
    <g id="Page-1" stroke="none" stroke-width="1" fill="none" fill-rule="evenodd">
        <g id="Project-Air-Process-Icons" transform="translate(-130.000000, -588.000000)">
            <g id="Icon_Error_Handler" transform="translate(130.000000, 588.000000)">
                <mask id="mask-2" fill="white">
                    <use xlink:href="#path-1"></use>
                </mask>
                <g id="Clip-2"></g>
                <path d="M13.0732,15.8008 C13.0732,16.4008 12.5872,16.8868 11.9872,16.8868 C11.3862,16.8868 10.9002,16.4008 10.9002,15.8008 C10.9002,15.1998 11.3862,14.7138 11.9872,14.7138 C12.5872,14.7138 13.0732,15.1998 13.0732,15.8008 M13.0732,8.2208 L13.0732,12.3258 C13.0732,12.9268 12.5872,13.4128 11.9862,13.4128 C11.3862,13.4128 10.8992,12.9268 10.8992,12.3258 L10.8992,8.2208 C10.8992,7.6198 11.3862,7.1338 11.9862,7.1338 C12.5872,7.1338 13.0732,7.6198 13.0732,8.2208 M18.8532,13.1318 L18.8542,13.1318 L18.8512,13.1438 C18.3672,16.0678 16.0632,18.3698 13.1382,18.8538 C13.1362,18.8538 13.1352,18.8548 13.1322,18.8548 C12.7622,18.9148 12.3862,18.9538 12.0002,18.9538 C11.6132,18.9538 11.2372,18.9148 10.8682,18.8548 C10.8652,18.8548 10.8632,18.8538 10.8612,18.8538 C7.9352,18.3698 5.6312,16.0668 5.1472,13.1408 C5.1462,13.1378 5.1452,13.1348 5.1452,13.1318 L5.1462,13.1318 C5.0862,12.7628 5.0462,12.3868 5.0462,11.9998 C5.0462,11.6138 5.0862,11.2378 5.1462,10.8678 L5.1452,10.8678 C5.1462,10.8638 5.1472,10.8618 5.1472,10.8578 C5.6332,7.9338 7.9362,5.6298 10.8622,5.1478 C10.8642,5.1478 10.8662,5.1468 10.8682,5.1468 C11.2372,5.0858 11.6132,5.0468 12.0002,5.0468 C12.3862,5.0468 12.7622,5.0858 13.1322,5.1468 C13.1352,5.1468 13.1352,5.1478 13.1382,5.1478 C16.0622,5.6298 18.3652,7.9318 18.8512,10.8548 C18.8522,10.8598 18.8532,10.8638 18.8542,10.8678 L18.8532,10.8678 C18.9142,11.2378 18.9542,11.6138 18.9542,11.9998 C18.9542,12.3868 18.9142,12.7628 18.8532,13.1318 M22.8682,10.8678 L21.4912,10.8678 C21.2782,9.0778 20.5702,7.4428 19.5082,6.0938 L20.4852,5.1158 C20.9272,4.6738 20.9272,3.9578 20.4852,3.5158 C20.0432,3.0728 19.3262,3.0728 18.8852,3.5158 L17.9062,4.4928 C16.5582,3.4308 14.9222,2.7228 13.1322,2.5098 L13.1322,1.1318 C13.1322,0.5068 12.6252,-0.0002 12.0002,-0.0002 C11.3752,-0.0002 10.8682,0.5068 10.8682,1.1318 L10.8682,2.5098 C9.0782,2.7228 7.4412,3.4308 6.0942,4.4928 L5.1152,3.5158 C4.6742,3.0728 3.9572,3.0728 3.5142,3.5158 C3.0722,3.9578 3.0722,4.6738 3.5142,5.1158 L4.4922,6.0938 C3.4292,7.4428 2.7212,9.0778 2.5092,10.8678 L1.1322,10.8678 C0.5072,10.8678 0.0002,11.3748 0.0002,11.9998 C0.0002,12.6248 0.5072,13.1318 1.1322,13.1318 L2.5092,13.1318 C2.7212,14.9218 3.4292,16.5588 4.4932,17.9068 L3.4102,18.9888 C2.9682,19.4318 2.9682,20.1488 3.4102,20.5908 C3.8522,21.0328 4.5692,21.0328 5.0102,20.5908 L6.0942,19.5078 C7.4412,20.5708 9.0782,21.2788 10.8682,21.4908 L10.8682,22.8678 C10.8682,23.4928 11.3752,23.9998 12.0002,23.9998 C12.6252,23.9998 13.1322,23.4928 13.1322,22.8678 L13.1322,21.4908 C14.9222,21.2788 16.5582,20.5708 17.9062,19.5078 L18.8852,20.4858 C19.3262,20.9278 20.0432,20.9278 20.4852,20.4858 C20.9272,20.0428 20.9272,19.3258 20.4852,18.8848 L19.5082,17.9058 C20.5702,16.5588 21.2782,14.9218 21.4912,13.1318 L22.8682,13.1318 C23.4932,13.1318 24.0002,12.6248 24.0002,11.9998 C24.0002,11.3748 23.4932,10.8678 22.8682,10.8678" id="Fill-1" fill="#727272" mask="url(#mask-2)"></path>
            </g>
        </g>
    </g>
</svg>