<?xml version="1.0" encoding="UTF-8"?>
<svg width="24px" height="24px" viewBox="0 0 24 24" version="1.1" xmlns="http://www.w3.org/2000/svg" xmlns:xlink="http://www.w3.org/1999/xlink">
    <title>22131320-895E-4896-A9F8-D687F1EC9F82</title>
    <g id="Page-1" stroke="none" stroke-width="1" fill="none" fill-rule="evenodd">
        <g id="Project-Air-Process-Icons" transform="translate(-612.000000, -166.000000)" fill="#727272">
            <g id="Icon_Pipeline" transform="translate(612.000000, 166.000000)">
                <path d="M17.479,14.129 L21.736,14.129 L21.736,9.872 L17.479,9.872 L17.479,14.129 Z M2.263,21.736 L6.52,21.736 L6.52,17.479 L2.263,17.479 L2.263,21.736 Z M2.263,6.521 L6.52,6.521 L6.52,2.264 L2.263,2.264 L2.263,6.521 Z M22.65,7.607 L16.564,7.607 C15.82,7.607 15.215,8.214 15.215,8.958 L15.215,10.868 L14.933,10.868 C13.94,10.868 13.132,10.06 13.132,9.066 L13.132,7.326 C13.132,5.085 11.307,3.261 9.065,3.261 L8.784,3.261 L8.784,1.35 C8.784,0.605 8.179,0 7.435,0 L1.348,0 C0.604,0 0,0.605 0,1.35 L0,7.436 C0,8.18 0.604,8.785 1.348,8.785 L7.435,8.785 C8.179,8.785 8.784,8.18 8.784,7.436 L8.784,5.525 L9.065,5.525 C10.059,5.525 10.868,6.333 10.868,7.326 L10.868,9.066 C10.868,10.375 11.499,11.527 12.462,12.271 C11.499,13.017 10.868,14.169 10.868,15.478 L10.868,17.217 C10.868,18.211 10.059,19.019 9.065,19.019 L8.784,19.019 L8.784,16.564 C8.784,15.82 8.179,15.215 7.435,15.215 L1.348,15.215 C0.604,15.215 0,15.82 0,16.564 L0,22.651 C0,23.396 0.604,24 1.348,24 L7.435,24 C8.179,24 8.784,23.396 8.784,22.651 L8.784,21.283 L9.065,21.283 C11.307,21.283 13.132,19.459 13.132,17.217 L13.132,15.478 C13.132,14.484 13.94,13.676 14.933,13.676 L15.215,13.676 L15.215,15.043 C15.215,15.787 15.82,16.393 16.564,16.393 L22.65,16.393 C23.394,16.393 24,15.787 24,15.043 L24,8.958 C24,8.214 23.394,7.607 22.65,7.607 L22.65,7.607 Z"></path>
            </g>
        </g>
    </g>
</svg>