<?xml version="1.0" encoding="utf-8"?><svg xmlns="http://www.w3.org/2000/svg" width="24" height="24" fill="currentColor" viewBox="0 0 24 24"><path fill-rule="evenodd" d="M14.5 2h-10C3.12 2 2 3.053 2 4.353v15.294C2 20.947 3.12 22 4.5 22h15c1.38 0 2.5-1.053 2.5-2.353V9.06L14.5 2zm-9.375 8.162h5c.345 0 .625.263.625.588 0 .325-.28.588-.625.588h-5c-.345 0-.625-.263-.625-.588 0-.325.28-.588.625-.588zm11.25 8.235H5.125c-.345 0-.625-.263-.625-.588 0-.325.28-.588.625-.588h11.25c.345 0 .625.263.625.588 0 .325-.28.588-.625.588zm0-3.603H5.125c-.345 0-.625-.263-.625-.588 0-.325.28-.588.625-.588h11.25c.345 0 .625.263.625.588 0 .325-.28.588-.625.588zM14.5 9.06V3.176l6.35 5.883H14.5z"/></svg>