<?xml version="1.0" encoding="UTF-8"?>
<svg width="18px" height="18px" viewBox="0 0 18 18" version="1.1" xmlns="http://www.w3.org/2000/svg" xmlns:xlink="http://www.w3.org/1999/xlink">
    <title>5241C04B-EF18-4109-9775-B315EF7BF098</title>
    <defs>
        <filter id="filter-1">
            <feColorMatrix in="SourceGraphic" type="matrix" values="0 0 0 0 0.447059 0 0 0 0 0.447059 0 0 0 0 0.447059 0 0 0 1.000000 0"></feColorMatrix>
        </filter>
    </defs>
    <g id="Dashboard---gateway" stroke="none" stroke-width="1" fill="none" fill-rule="evenodd">
        <g id="icon_endpoint-copy-2" transform="translate(-484.000000, -296.000000)" filter="url(#filter-1)">
            <g transform="translate(484.000000, 296.000000)">
                <path d="M13.2,4.8 L15.6,4.8 L15.6,2.4 L13.2,2.4 L13.2,4.8 Z M2.4,15.6 L4.8,15.6 L4.8,13.2 L2.4,13.2 L2.4,15.6 Z M15.6,0 L13.2,0 C11.8746,0 10.8,1.0746 10.8,2.4 L10.8,4.8 C10.8009,5.0088 10.8294,5.2167 10.884,5.418 L5.418,10.884 C5.2167,10.8294 5.0088,10.8009 4.8,10.8 L2.4,10.8 C1.0746,10.8 0,11.8746 0,13.2 L0,15.6 C0,16.9254 1.0746,18 2.4,18 L4.8,18 C6.1254,18 7.2,16.9254 7.2,15.6 L7.2,13.2 C7.1991,12.9912 7.1706,12.7833 7.116,12.582 L12.582,7.116 C12.7833,7.1706 12.9912,7.1991 13.2,7.2 L15.6,7.2 C16.9254,7.2 18,6.1254 18,4.8 L18,2.4 C18,1.0746 16.9254,0 15.6,0 L15.6,0 Z" id="Fill-1" fill="#000000"></path>
                <path d="M15.6,14.4 C15.6,15.0627 15.0627,15.6 14.4,15.6 L9,15.6 L9,18 L14.4,18 C16.3881,18 18,16.3881 18,14.4 L18,9 L15.6,9 L15.6,14.4 Z" id="Fill-3" fill="#000000"></path>
                <path d="M2.4,3.6 C2.4,2.9373 2.9373,2.4 3.6,2.4 L9,2.4 L9,0 L3.6,0 C1.6119,0 0,1.6119 0,3.6 L0,9 L2.4,9 L2.4,3.6 Z" id="Fill-4" fill="#000000"></path>
            </g>
        </g>
    </g>
</svg>