<?xml version="1.0" encoding="UTF-8"?>
<svg width="14px" height="13px" viewBox="0 0 14 13" version="1.1" xmlns="http://www.w3.org/2000/svg" xmlns:xlink="http://www.w3.org/1999/xlink">
    <title>7F5FEB8E-33FD-4AC5-A589-95B129283E5E</title>
    <g id="Dashboard---gateway" stroke="none" stroke-width="1" fill="none" fill-rule="evenodd">
        <g id="Icons" transform="translate(-222.000000, -417.000000)" stroke="#727272">
            <g id="icon/upload" transform="translate(222.000000, 417.000000)">
                <path d="M3.5,9.5 L3.07142857,9.5 C1.65126779,9.5 0.5,8.38071187 0.5,7 C0.5,5.61928813 1.65126779,4.5 3.07142857,4.5" id="Path"></path>
                <path d="M11.5,5.5 C12.6045695,5.5 13.5,6.3954305 13.5,7.5 C13.5,8.6045695 12.6045695,9.5 11.5,9.5" id="Path"></path>
                <path d="M3.5,5.00916747 C3.5,5.00916747 3.5,4.83944498 3.5,4.5 C3.5,2.290861 5.290861,0.5 7.5,0.5 C9.709139,0.5 11.5,2.290861 11.5,4.5 C11.5,5.5 11.5,6 11.5,6" id="Path"></path>
                <polyline id="Path-2" stroke-linecap="round" stroke-linejoin="round" points="5.5 10 7.5 8 9.5 10"></polyline>
                <line x1="7.5" y1="8.5" x2="7.5" y2="12.5" id="Line" stroke-linecap="round"></line>
            </g>
        </g>
    </g>
</svg>