<?xml version="1.0" encoding="UTF-8"?>
<svg width="22px" height="20px" viewBox="0 0 22 20" version="1.1" xmlns="http://www.w3.org/2000/svg" xmlns:xlink="http://www.w3.org/1999/xlink">
    <title>F4E12991-3EFC-46AC-A91E-688D0DA2702B</title>
    <g id="Dashboard---gateway" stroke="none" stroke-width="1" fill="none" fill-rule="evenodd">
        <g id="Icons" transform="translate(-547.000000, -295.000000)" stroke="#727272">
            <g id="icon_pipeline-copy-2" transform="translate(558.000000, 305.000000) rotate(-90.000000) translate(-558.000000, -305.000000) translate(550.000000, 296.000000)">
                <rect id="Rectangle" stroke-width="2.5" x="0" y="0" width="5" height="5" rx="1"></rect>
                <rect id="Rectangle-Copy-2" stroke-width="2.5" x="11" y="0" width="5" height="5" rx="1"></rect>
                <rect id="Rectangle-Copy" stroke-width="2.5" x="5" y="13" width="5" height="5" rx="1"></rect>
                <path d="M1,5 C1,7.59259259 2,8.88888889 4,8.88888889 C6,8.88888889 7,9.92592593 7,12" id="Path-3" stroke-width="2"></path>
                <path d="M8,6 C8,8.59259259 9.16666667,9.88888889 11.5,9.88888889 C13.8333333,9.88888889 15,10.9259259 15,13" id="Path-3-Copy" stroke-width="2" transform="translate(11.500000, 9.500000) scale(1, -1) rotate(-360.000000) translate(-11.500000, -9.500000) "></path>
            </g>
        </g>
    </g>
</svg>